<svg xmlns="http://www.w3.org/2000/svg" viewBox="0 0 120 120" fill="none">
  <defs>
    <linearGradient id="fo1" x1="0%" y1="0%" x2="100%" y2="100%">
      <stop offset="0%" style="stop-color:#3b82f6"/>
      <stop offset="55%" style="stop-color:#6366f1"/>
      <stop offset="100%" style="stop-color:#8b5cf6"/>
    </linearGradient>
    <linearGradient id="fo2" x1="100%" y1="0%" x2="0%" y2="100%">
      <stop offset="0%" style="stop-color:#06b6d4;stop-opacity:0.9"/>
      <stop offset="100%" style="stop-color:#3b82f6;stop-opacity:0.2"/>
    </linearGradient>
    <radialGradient id="foGlow" cx="35%" cy="30%" r="65%">
      <stop offset="0%" style="stop-color:#fff;stop-opacity:0.35"/>
      <stop offset="45%" style="stop-color:#8b5cf6;stop-opacity:0.15"/>
      <stop offset="100%" style="stop-color:#000;stop-opacity:0"/>
    </radialGradient>
    <filter id="foBlur" x="-20%" y="-20%" width="140%" height="140%">
      <feGaussianBlur stdDeviation="1.2" result="b"/>
      <feMerge><feMergeNode in="b"/><feMergeNode in="SourceGraphic"/></feMerge>
    </filter>
  </defs>
  <circle cx="60" cy="60" r="56" fill="url(#fo1)" opacity="0.12"/>
  <ellipse cx="60" cy="58" rx="38" ry="36" fill="url(#foGlow)"/>
  <circle cx="60" cy="60" r="32" fill="url(#fo1)" opacity="0.85"/>
  <circle cx="60" cy="60" r="32" stroke="url(#fo2)" stroke-width="1.5" opacity="0.6"/>
  <ellipse cx="48" cy="48" rx="14" ry="10" fill="#fff" opacity="0.2" transform="rotate(-18 48 48)"/>
  <path d="M60 28a32 32 0 0132 32M28 60a32 32 0 0132-32M92 60a32 32 0 01-32 32M60 92a32 32 0 01-32-32" stroke="url(#fo2)" stroke-width="0.8" stroke-linecap="round" opacity="0.5" filter="url(#foBlur)"/>
</svg>
